<?xml version="1.0" encoding="UTF-8" standalone="no"?>
<svg
   xmlns:osb="http://www.openswatchbook.org/uri/2009/osb"
   xmlns:dc="http://purl.org/dc/elements/1.1/"
   xmlns:cc="http://creativecommons.org/ns#"
   xmlns:rdf="http://www.w3.org/1999/02/22-rdf-syntax-ns#"
   xmlns:svg="http://www.w3.org/2000/svg"
   xmlns="http://www.w3.org/2000/svg"
   xmlns:sodipodi="http://sodipodi.sourceforge.net/DTD/sodipodi-0.dtd"
   xmlns:inkscape="http://www.inkscape.org/namespaces/inkscape"
   width="39.5mm"
   height="39.5mm"
   viewBox="0 0 39.5 39.5"
   version="1.1"
   id="svg8"
   inkscape:version="1.0.2 (e86c870879, 2021-01-15, custom)"
   sodipodi:docname="logo.svg">
  <defs
     id="defs2">
    <rect
       x="208.45387"
       y="212.42262"
       width="142.686"
       height="50.081844"
       id="rect3731" />
    <linearGradient
       id="linearGradient1591"
       osb:paint="solid">
      <stop
         style="stop-color:#fcfffc;stop-opacity:1;"
         offset="0"
         id="stop1589" />
    </linearGradient>
    <linearGradient
       inkscape:collect="always"
       id="linearGradient1245"
       osb:paint="gradient">
      <stop
         style="stop-color:#2ba84a;stop-opacity:1;"
         offset="0"
         id="stop1241" />
      <stop
         style="stop-color:#2ba84a;stop-opacity:0;"
         offset="1"
         id="stop1243" />
    </linearGradient>
  </defs>
  <sodipodi:namedview
     id="base"
     pagecolor="#ffffff"
     bordercolor="#666666"
     borderopacity="1.0"
     inkscape:pageopacity="0.0"
     inkscape:pageshadow="2"
     inkscape:zoom="2.8"
     inkscape:cx="-91.103547"
     inkscape:cy="110.91776"
     inkscape:document-units="mm"
     inkscape:current-layer="layer1"
     inkscape:document-rotation="0"
     showgrid="false"
     fit-margin-top="0"
     fit-margin-left="0"
     fit-margin-right="0"
     fit-margin-bottom="0"
     inkscape:window-width="2560"
     inkscape:window-height="1440"
     inkscape:window-x="0"
     inkscape:window-y="0"
     inkscape:window-maximized="1" />
  <metadata
     id="metadata5">
    <rdf:RDF>
      <cc:Work
         rdf:about="">
        <dc:format>image/svg+xml</dc:format>
        <dc:type
           rdf:resource="http://purl.org/dc/dcmitype/StillImage" />
        <dc:title></dc:title>
      </cc:Work>
    </rdf:RDF>
  </metadata>
  <g
     inkscape:label="Lager 1"
     inkscape:groupmode="layer"
     id="layer1"
     transform="translate(-43.749996,-115.56547)">
    <rect
       style="fill:#272d2d;fill-opacity:1;stroke:#50514f;stroke-width:1.5;stroke-miterlimit:4;stroke-dasharray:none;stroke-opacity:1"
       id="rect1212-7-9-8"
       width="38"
       height="38"
       x="44.499996"
       y="116.31547"
       ry="8.3826399" />
    <text
       xml:space="preserve"
       style="font-style:normal;font-variant:normal;font-weight:normal;font-stretch:normal;font-size:15.7143px;line-height:1.25;font-family:'Lucida Console';-inkscape-font-specification:'Lucida Console';fill:#2ba84a;fill-opacity:1;stroke:none;stroke-width:0.245993;stroke-miterlimit:4;stroke-dasharray:none"
       x="49.270264"
       y="125.38107"
       id="text12-8-0-4"
       transform="scale(0.94807947,1.0547639)"><tspan
         sodipodi:role="line"
         id="tspan10-4-3-5"
         x="49.270264"
         y="125.38107"
         style="font-style:italic;font-variant:normal;font-weight:bold;font-stretch:normal;font-size:15.7143px;font-family:Calibri;-inkscape-font-specification:'Calibri Bold Italic';fill:#2ba84a;fill-opacity:1;stroke-width:0.245993;stroke-miterlimit:4;stroke-dasharray:none">VHDL</tspan></text>
    <text
       xml:space="preserve"
       style="font-style:italic;font-variant:normal;font-weight:normal;font-stretch:normal;font-size:24.182px;line-height:1.25;font-family:Calibri;-inkscape-font-specification:'Calibri Italic';fill:#fcfffc;fill-opacity:1;stroke:none;stroke-width:0.453411"
       x="57.981281"
       y="149.74188"
       id="text21-7-0-7"><tspan
         sodipodi:role="line"
         id="tspan19-3-6-0"
         x="57.981281"
         y="149.74188"
         style="font-style:italic;font-variant:normal;font-weight:normal;font-stretch:normal;font-size:24.182px;font-family:Calibri;-inkscape-font-specification:'Calibri Italic';fill:#fcfffc;fill-opacity:1;stroke-width:0.453411">LS</tspan></text>
    <path
       d="m 57.818791,145.85477 c 0,0.0472 -0.0135,0.11017 -0.0406,0.18892 0,0.0787 -0.0406,0.1653 -0.12173,0.25976 -0.0812,0.0866 -0.17598,0.17712 -0.28446,0.27158 -0.10826,0.0866 -0.24365,0.16924 -0.40618,0.24796 -0.13533,0.0787 -0.32487,0.14169 -0.56862,0.18892 -0.2167,0.0473 -0.46038,0.0709 -0.73104,0.0709 h -7.613608 c -0.352,0 -0.60923,-0.0354 -0.77169,-0.10627 -0.16247,-0.0708 -0.2437,-0.17712 -0.2437,-0.31881 0,-0.0393 0.0135,-0.0944 0.0406,-0.1653 0.0271,-0.0787 0.0677,-0.16137 0.12184,-0.24796 0.0812,-0.0945 0.17599,-0.18892 0.2843,-0.28339 0.1083,-0.0945 0.24368,-0.17711 0.40614,-0.24796 0.16247,-0.0787 0.33847,-0.13775 0.528,-0.17711 0.21661,-0.0473 0.47385,-0.0709 0.7717,-0.0709 h 7.613528 c 0.37907,0 0.6363,0.0354 0.77169,0.10627 0.16235,0.0709 0.24353,0.16531 0.24353,0.28339 z"
       style="font-style:italic;font-variant:normal;font-weight:normal;font-stretch:normal;font-size:24.182px;line-height:1.25;font-family:Calibri;-inkscape-font-specification:'Calibri Italic';fill:#266831;fill-opacity:1;stroke:none;stroke-width:0.840919"
       id="path1327-2-43-84"
       sodipodi:nodetypes="ccccccssssccsccssccc" />
    <path
       d="m 58.553304,141.5302 c 0,0.0472 -0.0135,0.11017 -0.0406,0.18892 0,0.0787 -0.0406,0.1653 -0.12173,0.25976 -0.0812,0.0866 -0.17598,0.17712 -0.28446,0.27158 -0.10826,0.0866 -0.24365,0.16924 -0.40618,0.24796 -0.13533,0.0787 -0.32487,0.14169 -0.56862,0.18892 -0.2167,0.0473 -0.46038,0.0709 -0.73104,0.0709 h -7.479976 c -0.352,0 -0.60923,-0.0354 -0.77169,-0.10627 -0.16247,-0.0708 -0.2437,-0.17712 -0.2437,-0.31881 0,-0.0393 0.0135,-0.0944 0.0406,-0.1653 0.0271,-0.0787 0.0677,-0.16137 0.12184,-0.24796 0.0812,-0.0945 0.17599,-0.18892 0.2843,-0.28339 0.1083,-0.0945 0.24368,-0.17711 0.40614,-0.24796 0.16247,-0.0787 0.33847,-0.13775 0.528,-0.17711 0.21661,-0.0473 0.47385,-0.0709 0.7717,-0.0709 h 7.479896 c 0.37907,0 0.6363,0.0354 0.77169,0.10627 0.16235,0.0709 0.24353,0.16531 0.24353,0.28339 z"
       style="font-style:italic;font-variant:normal;font-weight:normal;font-stretch:normal;font-size:24.182px;line-height:1.25;font-family:Calibri;-inkscape-font-specification:'Calibri Italic';fill:#2ba84a;fill-opacity:1;stroke:none;stroke-width:0.840919"
       id="path1327-2-43-1-5"
       sodipodi:nodetypes="ccccccssssccsccssccc" />
    <path
       d="m 59.53935,137.21478 c 0,0.0472 -0.0135,0.11017 -0.0406,0.18892 0,0.0787 -0.0406,0.1653 -0.12173,0.25976 -0.0812,0.0866 -0.17598,0.17712 -0.28446,0.27158 -0.10826,0.0866 -0.24365,0.16924 -0.40618,0.24796 -0.13533,0.0787 -0.32487,0.14169 -0.56862,0.18892 -0.2167,0.0473 -0.46038,0.0709 -0.73104,0.0709 h -7.613619 c -0.352,0 -0.60923,-0.0354 -0.77169,-0.10627 -0.16247,-0.0708 -0.2437,-0.17712 -0.2437,-0.31881 0,-0.0393 0.0135,-0.0944 0.0406,-0.1653 0.0271,-0.0787 0.0677,-0.16137 0.12184,-0.24796 0.0812,-0.0945 0.17599,-0.18892 0.2843,-0.28339 0.1083,-0.0945 0.24368,-0.17711 0.40614,-0.24796 0.16247,-0.0787 0.33847,-0.13775 0.528,-0.17711 0.21661,-0.0473 0.47385,-0.0709 0.7717,-0.0709 h 7.613539 c 0.37907,0 0.6363,0.0354 0.77169,0.10627 0.16235,0.0709 0.24353,0.16531 0.24353,0.28339 z"
       style="font-style:italic;font-variant:normal;font-weight:normal;font-stretch:normal;font-size:24.182px;line-height:1.25;font-family:Calibri;-inkscape-font-specification:'Calibri Italic';fill:#c2fcd1;fill-opacity:0.723809;stroke:none;stroke-width:0.840919"
       id="path1327-2-43-9-1"
       sodipodi:nodetypes="ccccccssssccsccssccc" />
    <text
       xml:space="preserve"
       id="text3729"
       style="font-size:12.7px;line-height:1.25;font-family:'Ink Free';-inkscape-font-specification:'Ink Free';white-space:pre;shape-inside:url(#rect3731);" />
  </g>
</svg>
